<svg
  xmlns="http://www.w3.org/2000/svg" viewBox="0 0 23.7 43.2">
  <defs/>
  <defs>
    <style>
      .accent{fill:royalblue}
      .bottle{fill:#f2f2fc}
    </style>
  </defs>
  <path fill="lavender" fill-rule="evenodd" d="M6.8 14.8c-.1 3.8-.2 5.6-2 7.6-1.2 1.3-1.6 2-1.6 4.6v14.3A2 2 0 005 43.2h12.7a1.7 1.7 0 001.9-2V27.9a5.2 5.2 0 00-3.1-4.2c-3.4-1.7-3.9-4.2-3.8-8.8h.1a.4.4 0 00.4-.3v-3.6a.4.4 0 00-.4-.4h-.5V7.7l2.9-1a5.8 5.8 0 005.7 5.7c-2.2-2.4-2.9-4-2.8-6.8l3-1h2.6V1.3H7.6c-2.7 0-6 3.3-6.2 5.1h4.2C6.6 6.5 7 7 7 8v2.5h-.4a.4.4 0 00-.4.4v3.6a.4.4 0 00.4.3z"/>
  <path class="bottle" fill-rule="evenodd" d="M11.3 13.4h-6c0 3.8-.2 5.6-2 7.6-1 1.3-1.6 1.9-1.5 4.6v14.3a2 2 0 001.8 1.9h12.7a1.7 1.7 0 001.9-2V26.5a5.2 5.2 0 00-3.1-4.2c-3.4-1.7-4-4.2-3.8-8.8z"/>
  <path d="M19.7 0h2.6v3.1h-2.6z" class="accent"/>
  <path class="accent" fill-rule="evenodd" d="M16.8 3.1l-3 1.4c-.1 3 1.3 6.1 5.7 6.5-2.5-2.7-3-4.4-2.7-7.9z"/>
  <path fill="indianred" fill-rule="evenodd" d="M8.3 27.2h3.1v2.7h2.7V33h-2.7v2.7H8.3V33H5.6v-3.1h2.7v-2.7z"/>
  <path class="bottle" fill-rule="evenodd" d="M0 5.1h4.2c1 0 1.4.5 1.4 1.5v3.6H11V6.3l8.8-3.2V0H6.2C3.5 0 .2 3.3 0 5.1z"/>
  <rect width="6.9" height="4.3" x="4.8" y="9.1" class="accent" rx=".4"/>
  <path fill="grey" d="M5.8 9.9h.5v2.8h-.5zM7.3 9.9h.5v2.8h-.5zM8.8 9.9h.5v2.8h-.5zM10.2 9.9h.5v2.8h-.5z"/>
</svg>
