<svg xmlns="http://www.w3.org/2000/svg" viewBox="0 0 22 9">
  <defs/>
  <defs>
    <style>
      .accent { fill: #4169e1; }
      .bottle { fill: #f2f2fc; }
    </style>
  </defs>
  <g transform="translate(0 -.5)">
    <path fill="#e6e6fa" fill-rule="evenodd" d="M2.4 3.71c-.01.72-.03 1.06-.37 1.44-.23.24-.3.38-.3.87v2.7c0 .18.15.34.33.35h2.4c.22.03.4-.16.36-.37V6.19a.98.98 0 00-.58-.8c-.65-.32-.74-.79-.72-1.65h.02c.03 0 .06-.03.07-.06V3a.08.08 0 00-.07-.08h-.1v-.54l.55-.2c0 .6.49 1.07 1.08 1.08-.42-.45-.55-.75-.53-1.28l.56-.19h.5v-.62H2.55c-.51 0-1.14.62-1.17.96h.79c.19.02.26.11.26.3v.47h-.07a.08.08 0 00-.08.08v.68c.01.03.04.06.08.05z"/>
    <path fill-rule="evenodd" d="M3.25 3.45H2.13c0 .72-.04 1.06-.38 1.44-.18.24-.3.35-.28.86v2.7c.01.19.16.34.34.36h2.4c.21.03.4-.16.36-.38v-2.5a.98.98 0 00-.59-.8c-.64-.32-.75-.8-.72-1.66z" class="bottle"/>
    <path d="M4.84.92h.49v.59h-.5z" class="accent"/>
    <path fill-rule="evenodd" d="M4.3 1.5l-.57.27C3.7 2.34 3.97 2.92 4.8 3c-.47-.51-.56-.83-.5-1.5z" class="accent"/>
    <path fill="#cd5c5c" fill-rule="evenodd" d="M2.69 6.06h.58v.5h.51v.59h-.5v.5h-.6v-.5h-.5v-.58h.5v-.51z"/>
    <path fill-rule="evenodd" d="M1.12 1.89h.8c.18 0 .26.09.26.28v.68H3.2V2.1l1.66-.6V.92H2.29c-.5 0-1.13.63-1.17.96z" class="bottle"/>
    <rect width="1.3" height=".81" x="2.03" y="2.64" class="accent" rx=".4"/>
    <path fill="gray" d="M2.22 2.8h.09v.52h-.1zm.28 0h.1v.52h-.1zm.28 0h.1v.52h-.1zm.27 0h.09v.52h-.1z"/>
  </g>
  <path d="M6.83 4.5c0 .13.02.25.06.36.03.1.08.2.15.27a.67.67 0 00.53.24.97.97 0 00.5-.13l.1.25a1.41 1.41 0 01-.64.15c-.15 0-.29-.03-.41-.08a.9.9 0 01-.32-.23 1 1 0 01-.21-.35 1.4 1.4 0 01-.08-.47c0-.17.03-.32.08-.46s.12-.26.21-.36c.1-.1.2-.18.33-.24a1.38 1.38 0 01.99.03l-.1.25a1 1 0 00-.46-.1c-.1 0-.2.02-.29.06-.09.03-.16.1-.23.17a.78.78 0 00-.15.27c-.04.1-.06.23-.06.37zm2.91.28a.64.64 0 00-.15-.42.55.55 0 00-.4-.18c-.17 0-.3.06-.4.16-.1.11-.15.26-.15.44a.65.65 0 00.16.42c.05.06.1.1.17.13a.57.57 0 00.45 0 .48.48 0 00.18-.12.57.57 0 00.1-.18.75.75 0 00.04-.25zm-1.4 0a.79.79 0 01.51-.8.94.94 0 01.95.18c.08.07.14.16.18.27.04.1.07.22.07.35 0 .13-.03.24-.07.35a.78.78 0 01-.45.44.91.91 0 01-.34.06.9.9 0 01-.34-.06.8.8 0 01-.45-.44.9.9 0 01-.06-.35zm2.39-.81v.27a.8.8 0 01.23-.22c.1-.06.21-.09.35-.09.19 0 .33.06.43.17.1.1.14.25.14.44v1.05h-.3V4.57a.43.43 0 00-.08-.29.3.3 0 00-.24-.1c-.05 0-.1 0-.15.03a.7.7 0 00-.27.18 1 1 0 00-.1.13V5.6h-.3V3.96h.29zm1.74.06l.06-.52h.23v.52h.47v.24h-.47v.79c0 .06 0 .1.02.15l.05.1c.03.03.06.04.1.06l.1.01c.05 0 .1 0 .15-.02a.9.9 0 00.14-.06l.08.22a1.03 1.03 0 01-.4.11.5.5 0 01-.4-.15c-.1-.1-.14-.25-.14-.45v-.76h-.3v-.24h.3zm1.05.76c0-.12.02-.23.06-.34.04-.1.1-.2.17-.27a.8.8 0 01.85-.2c.08.03.15.07.2.12v-.13h.28V5.2c0 .08.02.13.06.16.04.02.08.03.13.03l-.06.22c-.21 0-.34-.08-.38-.24l-.1.1a.61.61 0 01-.26.14.76.76 0 01-.73-.2.82.82 0 01-.16-.27.94.94 0 01-.06-.35zm.84.6c.08 0 .16-.03.24-.06a.58.58 0 00.18-.15v-.87a.84.84 0 00-.2-.1.7.7 0 00-.22-.04.53.53 0 00-.22.05.48.48 0 00-.17.12.56.56 0 00-.1.2.75.75 0 000 .48c.02.08.06.14.1.2a.52.52 0 00.39.16zm2.46-1.36l-.09.24a1.12 1.12 0 00-.18-.07.74.74 0 00-.18-.02.57.57 0 00-.22.04.47.47 0 00-.17.12.53.53 0 00-.11.19.7.7 0 00-.05.25c0 .08.02.16.04.23a.6.6 0 00.1.2.49.49 0 00.39.17.78.78 0 00.4-.1l.1.24a1.1 1.1 0 01-.86.05.72.72 0 01-.25-.18.79.79 0 01-.16-.26 1 1 0 010-.68c.04-.1.1-.2.16-.27a.8.8 0 01.61-.25 1.07 1.07 0 01.47.1zm.45 0l.06-.52h.22v.52h.48v.24h-.48v.79l.02.15.06.1a.2.2 0 00.09.06l.1.01c.06 0 .11 0 .16-.02l.14-.06.08.22a1.06 1.06 0 01-.4.11.5.5 0 01-.4-.15c-.1-.1-.14-.25-.14-.45v-.76h-.3v-.24h.3zm2.44.75a.64.64 0 00-.16-.42.55.55 0 00-.8-.02c-.1.11-.14.26-.14.44a.62.62 0 00.16.43c.04.05.1.1.17.12a.57.57 0 00.45 0 .49.49 0 00.17-.12.57.57 0 00.1-.18.75.75 0 00.05-.25zm-1.4 0a.79.79 0 01.52-.8.93.93 0 01.66.01.77.77 0 01.45.44c.05.1.07.22.07.35a.81.81 0 01-.24.62.81.81 0 01-.28.17.92.92 0 01-.33.06.91.91 0 01-.35-.06.78.78 0 01-.44-.44.9.9 0 01-.07-.35z" style="white-space: pre;" fill="#333" filter="none"/>
  <path d="M6.93 4.7c0 .13.02.25.06.35.03.11.08.2.15.28a.67.67 0 00.53.24.97.97 0 00.51-.13l.1.24a1.41 1.41 0 01-.64.15c-.16 0-.3-.02-.42-.08a.9.9 0 01-.32-.22 1 1 0 01-.21-.35 1.4 1.4 0 01-.08-.47c0-.17.03-.32.08-.46s.12-.26.21-.36c.1-.1.2-.18.34-.24a1.38 1.38 0 01.99.03l-.1.25a1 1 0 00-.46-.1c-.1 0-.2.02-.3.05-.08.04-.16.1-.23.17a.78.78 0 00-.15.28c-.04.1-.06.23-.06.37zm2.91.28a.64.64 0 00-.15-.42.55.55 0 00-.4-.18c-.17 0-.3.05-.4.16-.1.11-.15.26-.15.43a.65.65 0 00.16.43c.05.06.1.1.17.13a.57.57 0 00.45 0 .48.48 0 00.18-.12.57.57 0 00.1-.19.75.75 0 00.04-.24zm-1.4 0c0-.13.02-.25.07-.35a.79.79 0 01.45-.44.94.94 0 01.94.17c.08.07.14.16.18.26.04.1.07.22.07.35 0 .13-.02.25-.07.36a.78.78 0 01-.45.44.91.91 0 01-.34.06.9.9 0 01-.34-.06.8.8 0 01-.44-.44.9.9 0 01-.07-.35zm2.39-.81v.27a.8.8 0 01.23-.22c.1-.06.21-.09.35-.09.19 0 .33.05.43.17.1.1.14.25.14.43V5.8h-.3V4.76a.43.43 0 00-.08-.28.3.3 0 00-.24-.1c-.05 0-.1 0-.15.02a.7.7 0 00-.27.18 1 1 0 00-.1.14v1.07h-.3V4.17h.29zm1.74.06l.06-.52h.23v.52h.47v.24h-.47v.79c0 .06 0 .1.02.15l.05.1c.03.03.06.04.1.05.03.02.06.02.1.02.05 0 .1 0 .15-.02a.9.9 0 00.14-.06l.09.22a1.03 1.03 0 01-.42.11.5.5 0 01-.39-.15c-.1-.1-.14-.25-.14-.45v-.76h-.3v-.24h.3zm1.05.76c0-.12.02-.23.06-.34.04-.1.1-.2.17-.27a.8.8 0 01.85-.2c.08.03.15.07.21.12v-.13h.27V5.4c0 .08.02.13.06.15.04.03.09.04.13.04l-.06.22c-.2 0-.34-.08-.38-.24l-.1.1a.61.61 0 01-.26.14.76.76 0 01-.73-.2.82.82 0 01-.16-.27.94.94 0 01-.06-.35zm.84.6c.08 0 .16-.03.24-.06a.58.58 0 00.18-.15V4.5a.84.84 0 00-.2-.09.7.7 0 00-.22-.04.53.53 0 00-.22.05.48.48 0 00-.17.12.56.56 0 00-.1.2.75.75 0 000 .48c.02.08.06.14.1.2a.52.52 0 00.39.16zm2.46-1.36l-.09.23a1.12 1.12 0 00-.18-.06.74.74 0 00-.18-.02.57.57 0 00-.22.04.47.47 0 00-.17.12.53.53 0 00-.11.18.7.7 0 00-.04.25.6.6 0 00.14.43.49.49 0 00.38.18.78.78 0 00.4-.1l.1.24a1.1 1.1 0 01-.85.05.72.72 0 01-.26-.18.79.79 0 01-.16-.26 1 1 0 010-.68.8.8 0 01.77-.52 1.07 1.07 0 01.47.1zm.45 0l.06-.52h.23v.52h.47v.24h-.47v.79c0 .06 0 .1.02.15l.05.1a.2.2 0 00.1.05c.03.02.06.02.1.02.05 0 .1 0 .15-.02l.14-.06.09.22a1.06 1.06 0 01-.42.11.5.5 0 01-.39-.15c-.1-.1-.14-.25-.14-.45v-.76h-.3v-.24h.3zm2.44.75a.64.64 0 00-.16-.42.55.55 0 00-.8-.02c-.1.11-.14.26-.14.43a.62.62 0 00.16.43c.04.06.1.1.17.13a.57.57 0 00.45 0 .49.49 0 00.17-.12.57.57 0 00.11-.19.75.75 0 00.04-.24zm-1.4 0a.79.79 0 01.52-.8.93.93 0 01.66.01.77.77 0 01.45.43c.05.1.07.22.07.35a.81.81 0 01-.24.62.81.81 0 01-.28.18.92.92 0 01-.33.06.91.91 0 01-.35-.06.78.78 0 01-.44-.44.9.9 0 01-.07-.35z" style="white-space: pre;" fill="#333" fill-opacity=".5" stroke-opacity=".5" filter="none"/>
</svg>
